<svg version="1.1" xmlns="http://www.w3.org/2000/svg" xmlns:xlink="http://www.w3.org/1999/xlink" width="367" height="409"><desc>title%20Consumer%0A%0A%0Adatabase%20Kafka%0A%0Aparticipant%20producer%0A%0Adatabase%20clickhouse%0A%0Aproducer-%3EKafka%3Aget%20messages%0Aproducer-%3Eproducer%3A%20process%20message%0Aproducer-%3Eclickhouse%3A%20save%20message%0Aclickhouse-%3Eproducer%3A%20save%20successfully%0Aproducer-%3EKafka%3A%20ack%20messages%0A</desc><defs/><g><g/><g/><g/><g/><g/><g><rect fill="white" stroke="none" x="0" y="0" width="367" height="409"/></g><g><text fill="black" stroke="none" font-family="sans-serif" font-size="16.5pt" font-style="normal" font-weight="normal" text-decoration="normal" x="133.05113944824217" y="22.6179738" text-anchor="start" dominant-baseline="alphabetic" xml:space="preserve">Consumer</text></g><g/><g><path fill="none" stroke="black" paint-order="fill stroke markers" d=" M 37.696623 118.97054218800001 L 37.696623 409.9884717480001" stroke-miterlimit="10" stroke-width="1.2565541" stroke-dasharray="11.598960923076923,5.0262164"/><path fill="none" stroke="black" paint-order="fill stroke markers" d=" M 171.58326460039063 118.97054218800001 L 171.58326460039063 409.9884717480001" stroke-miterlimit="10" stroke-width="1.2565541" stroke-dasharray="11.598960923076923,5.0262164"/><path fill="none" stroke="black" paint-order="fill stroke markers" d=" M 325.8297847408203 118.97054218800001 L 325.8297847408203 409.9884717480001" stroke-miterlimit="10" stroke-width="1.2565541" stroke-dasharray="11.598960923076923,5.0262164"/></g><g><g><path fill="white" stroke="black" paint-order="fill stroke markers" d=" M 15.681795168 89.41638975600002 L 15.681795168 57.75122643600001 L 59.711450832000004 57.75122643600001 L 59.711450832000004 89.41638975600002" stroke-miterlimit="10" stroke-width="2.5633703640000003" stroke-dasharray=""/><path fill="white" stroke="black" paint-order="fill stroke markers" d=" M 59.711450832000004 56.65048504440001 L 59.71035009978122 56.750002470476886 L 59.707048013197166 56.849509944894095 L 59.701544902453755 56.9489975169871 L 59.69384131785747 57.04845523808161 L 59.683938029760355 57.147873162488395 L 59.671836028482964 57.24724134849785 L 59.657536524215345 57.3465498593742 L 59.641040946896 57.4457887643491 L 59.62235094606892 57.54494813961476 L 59.601468390718615 57.64401806931628 L 59.57839536908321 57.74298864654325 L 59.553134188445654 57.841849974320425 L 59.525687374902944 57.940592166597405 L 59.496057673113576 58.03920534923725 L 59.46424804602303 58.13767966100388 L 59.430261674567504 58.23600525454817 L 59.394101957355836 58.334172297392705 L 59.3557725103296 58.43217097291501 L 59.31527716640156 58.529991481329205 L 59.27261997507236 58.62762404066595 L 59.22780520202561 58.72505888775068 L 59.18083732870123 58.82228627917988 L 59.131721051847435 58.91929649229543 L 59.08046128305098 59.01607982615686 L 59.02706314824603 59.11262660251144 L 58.97153198720156 59.20892716676198 L 58.913873352987395 59.304971888932315 L 58.854093011418925 59.400751164630265 L 58.79219694048047 59.49625541600807 L 58.728191329727565 59.59147509272019 L 58.662082579667924 59.68640067287828 L 58.59387730112148 59.78102266400345 L 58.52358231455924 59.87533160397543 L 58.45120464942129 59.969318061978825 L 58.376751543413825 60.06297263944614 L 58.3002304417854 60.15628597099768 L 58.22164899658242 60.24924872537805 L 58.14101506588389 60.34185160638929 L 58.058336713015734 60.43408535382045 L 57.973622205744306 60.52594074437366 L 57.88688001544974 60.617408592586415 L 57.79811881627879 60.708479751750104 L 57.707347484277406 60.79914511482471 L 57.614575096503145 60.88939561534948 L 57.519810930117465 60.97922222834956 L 57.42306446145805 61.06861597123853 L 57.324345365091126 61.15756790471657 L 57.22366351284408 61.24606913366447 L 57.12102897281822 61.33411080803308 L 57.016452008382046 61.42168412372834 L 56.909943077144824 61.50878032349165 L 56.80151282991093 61.59539069777562 L 56.69117210961475 61.68150658561499 L 56.57893195023634 61.76711937549275 L 56.464803575698106 61.85222050620124 L 56.3487983987424 61.93680146769832 L 56.230928019790255 62.02085380195832 L 56.111204225781336 62.104369103817845 L 55.98963898899526 62.18733902181633 L 55.86624446585442 62.2697552590311 L 55.741032995708295 62.35160957390711 L 55.61401709959956 62.4328937810811 L 55.48520947901197 62.51359975220007 L 55.35462301460026 62.59371941673418 L 55.222270764902035 62.67324476278373 L 55.088165965031976 62.7521678378804 L 54.95232202535833 62.83048074978243 L 54.81475253016184 62.908175667263905 L 54.67547123627739 62.98524482089782 L 54.53449207171831 63.06168050383303 L 54.39182913428357 63.13747507256495 L 54.247496690148026 63.212620947699854 L 54.10150917243581 63.28711061471286 L 53.953881179777056 63.360936624699335 L 53.80462747484799 63.4340915951198 L 53.653762982894726 63.50656821053819 L 53.50130279024075 63.578359223353345 L 53.34726214277827 63.64945745452381 L 53.191656444443666 63.71985579428573 L 53.03450125567711 63.78954720286377 L 52.8758122918665 63.85852471117517 L 52.71560542177599 63.92678142152658 L 52.55389666595908 63.994310508303826 L 52.39070219515659 64.06110521865452 L 52.226038328679614 64.12715887316328 L 52.05992153277758 64.19246486651971 L 51.89236841899164 64.25701666817889 L 51.723395742493544 64.32080782301445 L 51.55302040041014 64.38383195196405 L 51.38125943013365 64.44608275266734 L 51.20813000761798 64.5075540000961 L 51.0336494456611 64.56823954717684 L 50.8578351921738 64.62813332540541 L 50.680704828434926 64.6872293454539 L 50.50227606733324 64.74552169776953 L 50.32256675159616 64.80300455316568 L 50.14159485200551 64.8596721634047 L 49.95937846560044 64.91551886177277 L 49.775935813867726 64.97053906364663 L 49.59128524091969 65.0247272670519 L 49.40544521165975 65.07807805321343 L 49.21843430993596 65.13058608709704 L 49.03027123668266 65.18224611794311 L 48.84097480805036 65.23305297979161 L 48.650563953524184 65.28300159199867 L 48.45905771403091 65.33208695974473 L 48.26647524003491 65.38030417453389 L 48.07283578962307 65.42764841468485 L 47.878158726579095 65.47411494581308 L 47.68246351844704 65.51969912130417 L 47.48576973458465 65.56439638277854 L 47.288097044206395 65.60820226054732 L 47.08946521441659 65.65111237405922 L 46.88989410823268 65.69312243233865 L 46.689403682598986 65.73422823441479 L 46.488013986390996 65.7744256697417 L 46.28574515841049 65.81371071860933 L 46.08261742537173 65.85207945254552 L 45.87865109987873 65.88952803470889 L 45.67386657839408 65.9260527202724 L 45.46828433919927 65.96164985679792 L 45.26192494034691 65.99631588460149 L 45.05480901760491 66.03004733710921 L 44.84695728239294 66.06284084120392 L 44.638390519711336 66.09469311756257 L 44.429129586062544 66.12560098098405 L 44.21919540736555 66.15556134070776 L 44.00860897686327 66.18457120072271 L 43.797391353023286 66.21262766006708 L 43.58556365743195 66.23972791311832 L 43.3731470726823 66.26586924987369 L 43.160162840255815 66.2910490562213 L 42.94663225839823 66.31526481420151 L 42.732576679989805 66.3385141022587 L 42.51801751040999 66.36079459548343 L 42.30297620539695 66.38210406584494 L 42.087474268901985 66.40244038241397 L 41.87153325093916 66.42180151157581 L 41.65517474543032 66.44018551723366 L 41.43842038804573 66.45759056100228 L 41.22129185404048 66.4740149023918 L 41.003810856087036 66.48945689898177 L 40.785999142103975 66.5039150065854 L 40.56787849308117 66.51738777940398 L 40.349470720901756 66.52987387017144 L 40.13079766616096 66.54137203028912 L 39.91188119598201 66.55188110995061 L 39.692743201829515 66.56140005825667 L 39.47340559732026 66.5699279233204 L 39.25389031603192 66.57746385236243 L 39.0342193093097 66.58400709179611 L 38.8144145440712 66.58955698730296 L 38.59449800060979 66.59411298389804 L 38.374491670396544 66.59767462598552 L 38.154417553881146 66.60024155740412 L 37.934297658291854 66.60181352146286 L 37.71415399543479 66.60239036096665 L 37.4940085794928 66.601972018232 L 37.273883424824014 66.60055853509284 L 37.05380054376046 66.59815005289633 L 36.83378194440685 66.59474681248865 L 36.613849628439766 66.59034915419102 L 36.39402558890753 66.5849575177656 L 36.17433180803091 66.57857244237155 L 35.95479025500491 66.57119456651108 L 35.735422883801895 66.56282462796563 L 35.516251630976164 66.55346346372208 L 35.29729841347037 66.54311200988904 L 35.078585126423796 66.5317713016033 L 34.860133640982895 66.5194424729262 L 34.64196580211416 66.50612675673037 L 34.42410342641967 66.4918254845763 L 34.20656829995545 66.47654008657929 L 33.989382176052864 66.46027209126643 L 33.77256677314331 66.44302312542368 L 33.55614377258642 66.42479491393324 L 33.34013481650187 66.40558927960109 L 33.124561505605286 66.38540814297464 L 32.909445397048096 66.36425352215073 L 32.6948080022619 66.34212753257384 L 32.480670784807316 66.31903238682447 L 32.267055158227635 66.29497039439796 L 32.05398248390751 66.26994396147349 L 31.841474068936805 66.2439555906735 L 31.629551163979936 66.21700788081341 L 31.41823496115079 66.18910352664176 L 31.20754659189356 66.1602453185707 L 30.997507124869593 66.13043614239702 L 30.78813756385056 66.09967897901345 L 30.579458845618092 66.06797690411072 L 30.37149183787011 66.03533308786992 L 30.164257337134085 66.00175079464545 L 29.957776066687398 65.96723338263864 L 29.752068674485024 65.93178430356194 L 29.54715573109476 65.89540710229372 L 29.34305772764019 65.85810541652378 L 29.13979507375157 65.81988297638962 L 28.937388095524913 65.7807436041034 L 28.735857033489363 65.74069121356973 L 28.535222040583193 65.69972980999431 L 28.33550318013848 65.65786348948332 L 28.136720423874856 65.61509643863396 L 27.93889364990228 65.57143293411565 L 27.7420426407333 65.52687734224247 L 27.54618708130479 65.48143411853648 L 27.351346557009485 65.43510780728218 L 27.15754055173744 65.38790304107208 L 26.96478844592768 65.33982454034347 L 26.773109514630168 65.29087711290636 L 26.58252292557829 65.2410656534627 L 26.393047737272138 65.19039514311692 L 26.204702897072643 65.13887064887784 L 26.017507239306873 65.08649732315195 L 25.831479483384605 65.03328040322816 L 25.646638231926417 64.97922521075414 L 25.463001968903413 64.92433715120407 L 25.280589057788873 64.86862171333819 L 25.099417739721886 64.81208446865382 L 24.919506131683296 64.75473107082834 L 24.740872224683972 64.69656725515374 L 24.56353388196576 64.63759883796311 L 24.387508837215144 64.57783171604902 L 24.21281469278992 64.51727186607387 L 24.039468917958942 64.45592534397218 L 23.867488847155244 64.39379828434507 L 23.696891678242594 64.33089689984668 L 23.527694470795716 64.26722748056307 L 23.359914144394352 64.20279639338311 L 23.193567476931335 64.13761008136183 L 23.028671102934787 64.0716750630761 L 22.86524151190469 64.00499793197281 L 22.70329504666396 63.9375853557095 L 22.542847901724166 63.86944407548762 L 22.383916121666097 63.80058090537841 L 22.22651559953531 63.7310027316415 L 22.07066207525286 63.660716512036274 L 21.91637113404129 63.58972927512613 L 21.763658204866154 63.518048119575596 L 21.612538558893103 63.44568021344049 L 21.463027307960804 63.372632793451125 L 21.315139403069757 63.29891316428863 L 21.168889632887215 63.22452869785448 L 21.024292622268316 63.149486832533334 L 20.88136283079363 63.0737950724492 L 20.74011455132319 62.997460986715 L 20.600561908567247 62.92049220867569 L 20.462718857673774 62.842896435144944 L 20.326599182832993 62.76468142563545 L 20.19221649589896 62.68585500158298 L 20.059584235028378 62.60642504556425 L 19.928715663336813 62.526399500508674 L 19.79962386757237 62.44578636890406 L 19.672321756807058 62.3645937119964 L 19.54682206114586 62.28282964898372 L 19.423137330453766 62.20050235620419 L 19.301279933100773 62.11762006631847 L 19.181262054725067 62.0341910674865 L 19.06309569701447 61.95022370253862 L 18.946792676506288 61.86572636814137 L 18.83236462340565 61.78070751395776 L 18.719822980422503 61.695175641802365 L 18.609179001627368 61.60913930479112 L 18.50044375132592 61.52260710648604 L 18.39362810295258 61.43558770003484 L 18.288742737983167 61.348089787305646 L 18.185798144866776 61.26012211801682 L 18.08480461797693 61.17169348886198 L 17.985772256582162 61.08281274263036 L 17.88871096383608 60.99348876732251 L 17.793630445787073 60.90373049526153 L 17.70054021040772 60.81354690219982 L 17.609449566643978 60.722947006421535 L 17.520367623484315 60.63193986784075 L 17.433303289048812 60.54053458709549 L 17.348265269698366 60.44874030463767 L 17.265262069164034 60.356566199819014 L 17.184301987696713 60.26402148997322 L 17.10539312123708 60.17111542949413 L 17.02854336060602 60.07785730891038 L 16.953760390715555 59.98425645395631 L 16.881051689800362 59.89032222463943 L 16.81042452866993 59.79606401430437 L 16.74188596998153 59.70149124869363 L 16.675442867533906 59.606613385004955 L 16.61110186558194 59.511439910945654 L 16.548869398172204 59.41598034378382 L 16.488751688499583 59.32024422939662 L 16.43075474828494 59.224241141315716 L 16.374884377173977 59.127980679769905 L 16.321146162157238 59.03147247072513 L 16.269545477011444 58.93472616492187 L 16.22008748176211 58.83775143691009 L 16.17277712216755 58.74055798408177 L 16.12761912922429 58.64315552570121 L 16.084618018693998 58.54555380193307 L 16.043778090651895 58.44776257286839 L 16.00510342905675 58.3497916175486 L 15.968597901342491 58.25165073298757 L 15.934265158031472 58.15334973319199 L 15.902108632369412 58.054898448179905 L 15.872131539982078 57.95630672299779 L 15.84433687855373 57.85758441673599 L 15.818727427527353 57.75874140154287 L 15.7953057478267 57.659787561637586 L 15.77407418160023 57.56073279232165 L 15.75503485198687 57.46158699898947 L 15.738189662903714 57.36236009613774 L 15.723540298855632 57.26306200637407 L 15.711088224766826 57.16370265942468 L 15.700834685834323 57.06429199114147 L 15.692780707403479 56.96483994250841 L 15.686927094865418 56.86535645864751 L 15.683274433576518 56.76585148782425 L 15.681823088799863 56.666334980452774 L 15.68257320566872 56.56681688810091 L 15.685524709172036 56.46730716249495 L 15.690677304161913 56.367815754524536 L 15.698030475383142 56.268352613247544 L 15.707583487524737 56.16892768489523 L 15.71933538529344 56.06955091187757 L 15.733284993509269 55.970232231789055 L 15.749430917223023 55.87098157641492 L 15.76777154185579 55.771808870738006 L 15.788305033360391 55.672724031946224 L 15.811029338404786 55.57373696844089 L 15.835942184577405 55.47485757884587 L 15.863041080614394 55.376095751017715 L 15.892323316648728 55.27746136105691 L 15.923785964481212 55.17896427232026 L 15.957425877873273 55.08061433443455 L 15.993239692861614 54.98242138231162 L 16.03122382809457 54.884395235164845 L 16.071374485190283 54.786545695527266 L 16.113687649116496 54.68888254827129 L 16.158159088592075 54.59141555963026 L 16.204784356510135 54.49415447622183 L 16.25355879038274 54.39710902407328 L 16.304477512807146 54.30028890764895 L 16.35753543195354 54.20370380887981 L 16.412727242074226 54.10736338619524 L 16.470047424034185 54.01127727355723 L 16.529490245862984 53.91545507949698 L 16.59104976332798 53.81990638615403 L 16.654719820528726 53.724640748318095 L 16.720494050512556 53.629667692473575 L 16.788365875911285 53.53499671584691 L 16.858328509598934 53.440637285456866 L 16.930374955370436 53.34659883716785 L 17.00449800864125 53.252890774746334 L 17.08069025716782 53.15952246892046 L 17.15894408178879 53.066503256443006 L 17.2392516571869 52.973842439157714 L 17.321604952671542 52.88154928306908 L 17.40599573298179 52.78963301741581 L 17.492415559109944 52.69810283374788 L 17.5808557891454 52.606967885007364 L 17.67130757913886 52.51623728461321 L 17.763761883986696 52.425920105549835 L 17.858209458335473 52.33602537945989 L 17.954640857506458 52.24656209574106 L 18.0530464384401 52.15753920064718 L 18.1534163606603 52.06896559639356 L 18.255740587258487 51.980850140266824 L 18.360008885897262 51.893201643739154 L 18.46621082983366 51.80602887158716 L 18.574335798961783 51.71934054101541 L 18.684372980874823 51.63314532078473 L 18.796311371946288 51.5474518303453 L 18.91013977843035 51.46226863897477 L 19.02584681758122 51.37760426492128 L 19.1434209187914 51.29346717455169 L 19.26285032474875 51.20986578150492 L 19.384123092612203 51.12680844585059 L 19.50722709520603 51.04430347325308 L 19.632150022232555 50.962359114140874 L 19.758879381503178 50.88098356288161 L 19.88740250018758 50.800184956962596 L 20.017706526081 50.71997137617709 L 20.149778428889427 50.64035084181633 L 20.283605001532642 50.5613313158674 L 20.419172861464908 50.48292070021704 L 20.556468452013196 50.40512683586149 L 20.695478043732873 50.32795750212234 L 20.836187735780598 50.25142041586866 L 20.97858345730443 50.17552323074529 L 21.12265096885088 50.100273536407514 L 21.268375863788847 50.025678857762045 L 21.415743569750276 49.95174665421458 L 21.564739350087375 49.878484318923874 L 21.715348305346275 49.8058991780624 L 21.867555374756954 49.733998490083756 L 22.021345337739312 49.662789444996825 L 22.1767028154252 49.59227916364677 L 22.333612272196333 49.52247469700298 L 22.492058017237774 49.45338302545394 L 22.65202420610707 49.38501105810922 L 22.813494842318622 49.3173656321086 L 22.97645377894338 49.25045351193829 L 23.14088472022348 49.18428138875455 L 23.306771223201814 49.118855879714566 L 23.47409669936633 49.054183527314706 L 23.64284441630884 48.990270798736326 L 23.81299749939827 48.927124085199026 L 23.984538933468116 48.864749701321536 L 24.157451564517913 48.80315388449026 L 24.331718101428656 48.74234279423555 L 24.507321117691873 48.68232251161576 L 24.684243053152272 48.62309903860914 L 24.86246621576374 48.56467829751363 L 25.04197278335854 48.50706613035466 L 25.222744805429492 48.450268298300934 L 25.40476420492504 48.394290481088326 L 25.588012780056914 48.33913827645191 L 25.77247220612031 48.28481719956619 L 25.95812403732633 48.23133268249359 L 26.14494970864657 48.17869007364124 L 26.332930537669583 48.12689463722616 L 26.522047726469115 48.07595155274883 L 26.712282363483887 48.02586591447525 L 26.903615425408724 47.976642730927495 L 27.096027779096875 47.92828692438291 L 27.289500183473315 47.88080333038186 L 27.48401329145884 47.83419669724416 L 27.679547651904734 47.788471685594295 L 27.87608371153791 47.74363286789533 L 28.073601816916167 47.69968472799165 L 28.272082216393578 47.65663166066065 L 28.471505062095595 47.614477971173166 L 28.671850411903826 47.57322787486302 L 28.87309823145025 47.532885496705475 L 29.075228396120615 47.49345487090473 L 29.2782206930669 47.45493994049049 L 29.482054823228562 47.41734455692372 L 29.686710403362454 47.38067247971144 L 29.8921669680811 47.34492737603081 L 30.09840397189925 47.310112820362406 L 30.30540079128838 47.2762322941328 L 30.513136726739052 47.24328918536636 L 30.721591004830827 47.21128678834652 L 30.930742780309618 47.18022830328631 L 31.14057113817216 47.150116836008365 L 31.351055095757523 47.120955397634305 L 31.56217360484536 47.09274690428368 L 31.773905553760684 47.06549417678231 L 31.986229769485057 47.03919994038023 L 32.19912501977383 47.01386682447918 L 32.41257001527939 46.98949736236963 L 32.62654341168007 46.96609399097749 L 32.84102381181452 46.94365905062039 L 33.05598976782147 46.92219478477368 L 33.271419783284465 46.901703339846044 L 33.48729231538147 46.882186764964906 L 33.703585777039166 46.86364701177149 L 33.92027853909165 46.84608593422567 L 34.137348932443274 46.82950528842056 L 34.354775250235605 46.81390673240693 L 34.57253575001804 46.79929182602737 L 34.790608655922085 46.78566203076035 L 35.008972160838866 46.77301870957403 L 35.22760442859986 46.76136312679001 L 35.44648359616048 46.750696447956834 L 35.665587775786385 46.74101973973351 L 35.88489505724218 46.732333969782786 L 36.10438350998249 46.724640006674434 L 36.324031185344936 46.717938619798346 L 36.54381611874502 46.71223047928761 L 36.763716331872565 46.70751615595155 L 36.9837098348895 46.703796121218545 L 37.20377462862886 46.701070747088984 L 37.42388870679465 46.699340306098 L 37.64403005816248 46.698604971288255 L 37.864176668780665 46.69886481619261 L 38.0843065241716 46.700119814826806 L 38.30439761153318 46.702369841692004 L 38.524427921940095 46.705614671787416 L 38.74437545254465 46.709853980632715 L 38.96421820877707 46.715087344300564 L 39.18393420654494 46.72131423945895 L 39.40350147443158 46.72853404342355 L 39.62289805589317 46.73674603421998 L 39.842102011454394 46.745949390656016 L 40.061091420902365 46.75614319240367 L 40.279844385478626 46.767326420091266 L 40.49833903006902 46.77949795540535 L 40.71655350539116 46.792656581202536 L 40.93446599017936 46.80680098163122 L 41.15205469336674 46.82192974226314 L 41.3692978562643 46.83804135023483 L 41.58617375473679 46.85513419439893 L 41.80266070137508 46.87320656548526 L 42.01873704766493 46.89225665627179 L 42.23438118615175 46.912282561765295 L 42.44957155260141 46.93328227939192 L 42.664286628156596 46.95525370919741 L 42.878504941488664 46.97819465405708 L 43.09220507094481 47.00210281989557 L 43.305365646690156 47.026975815916224 L 43.517965352844776 47.05281115484016 L 43.72998292961521 47.07960625315501 L 43.94139717542047 47.107358431373285 L 44.15218694901215 47.136064914300285 L 44.362331171588544 47.16572283131164 L 44.57180882890252 47.19632921664036 L 44.780598973362906 47.22788100967341 L 44.988680726129246 47.260375055257796 L 45.196033279199675 47.29380810401604 L 45.40263589749166 47.3281768126711 L 45.608467920915565 47.36347774438077 L 45.813508766440556 47.39970736908131 L 46.017737930152954 47.436862063840415 L 46.22113498930657 47.47493811321959 L 46.423679604365 47.51393170964561 L 46.62535152103551 47.55383895379134 L 46.8261305722945 47.59465585496562 L 47.02599668040416 47.63637833151234 L 47.224929858920234 47.679002211218624 L 47.42291021469064 47.72252323173201 L 47.61991794984479 47.76693704098672 L 47.81593336377334 47.812239197638846 L 48.010936855098244 47.85842517151046 L 48.20490892363287 47.905490344042676 L 48.397830172332014 47.95343000875745 L 48.589681309231565 48.00223937172827 L 48.78044314937771 48.05191355205951 L 48.9700966167454 48.10244758237453 L 49.15862274614595 48.15383640931242 L 49.34600268512352 48.20607489403329 L 49.532217695840366 48.25915781273222 L 49.71724915695059 48.31307985716156 L 49.901078565462264 48.36783563516181 L 50.08368753858774 48.423419671200804 L 50.26505781558188 48.479826406921255 L 50.44517125956813 48.53705020169659 L 50.62400985935217 48.59508533319502 L 50.80155573122306 48.65392599795177 L 50.97779112074157 48.71356631194938 L 51.15269840451561 48.77400031120615 L 51.32626009196256 48.835221952372535 L 51.4984588270583 48.89722511333542 L 51.66927739007283 48.96000359383039 L 51.838698699292195 49.0235511160617 L 52.00670581272665 49.08786132533009 L 52.173281929804865 49.152927790668215 L 52.33841039305394 49.21874400548377 L 52.50207468976516 49.285303388210124 L 52.66425845364524 49.35259928296446 L 52.82494546645294 49.420624960213395 L 52.98411965962089 49.489373617445885 L 53.14176511586241 49.55883837985349 L 53.29786607076326 49.62901230101787 L 53.45240691435803 49.69988836360538 L 53.605372192691135 49.77145948006883 L 53.75674660936221 49.8437184933562 L 53.90651502705575 49.916658177626395 L 54.05466246905478 49.99027123897176 L 54.201174120738564 50.0645503161475 L 54.346035331064016 50.13948798130782 L 54.48923161403083 50.21507674074863 L 54.63074865013003 50.29130903565699 L 54.770572287775934 50.36817724286692 L 54.908688544721315 50.44567367562176 L 55.04508360945557 50.52379058434283 L 55.17974384258587 50.602520157404335 L 55.31265577820113 50.68185452191459 L 55.44380612521856 50.76178574450325 L 55.57318176871273 50.84230583211467 L 55.70076977122711 50.92340673280718 L 55.826557374067775 51.00508033655831 L 55.950531998579265 51.08731847607572 L 56.07268124740243 51.17011292761402 L 56.19299290571419 51.25345541179703 L 56.31145494244897 51.33733759444579 L 56.42805551150181 51.42175108741194 L 56.54278295291297 51.506687449416525 L 56.65562579403393 51.592138186894125 L 56.7665727506746 51.6780947548422 L 56.87561272823177 51.76454855767558 L 56.98273482279856 51.85149095008604 L 57.08792832225478 51.93891323790678 L 57.19118270733814 52.02680667898187 L 57.292487652696174 52.115162484040454 L 57.39183302791877 52.20397181757565 L 57.4892088985512 52.293225798728116 L 57.58460552708754 52.38291550217411 L 57.67801337394444 52.47303195901802 L 57.76942309841504 52.56356615768928 L 57.858825559603076 52.65450904484346 L 57.94621181733694 52.74585152626762 L 58.03157313306366 52.837584467789746 L 58.114900970722815 52.92969869619212 L 58.19618699760008 53.02218500012867 L 58.27542308516048 53.11503413104609 L 58.35260130986133 53.20823680410863 L 58.42771395394443 53.30178369912667 L 58.500753506208 53.39566546148867 L 58.57171266275766 53.48987270309661 L 58.6405843277369 53.58439600330485 L 58.70736161403661 53.67922590986214 L 58.7720378439838 53.77435293985683 L 58.83460655000938 53.86976758066522 L 58.895061475294895 53.96546029090272 L 58.953396574398184 54.06142150137806 L 59.00960601385795 54.15764161605015 L 59.06368417277709 54.254111012987714 L 59.115625643384774 54.350820045331446 L 59.16542523157724 54.4477590422587 L 59.21307795743715 54.54491830995058 L 59.25857905573163 54.64228813256127 L 59.30192397638878 54.739858773189646 L 59.34310838495265 54.83762047485297 L 59.3821281630167 54.93556346146252 L 59.41897940863565 55.033677938801276 L 59.45365843671563 55.131954095503254 L 59.48616177938274 55.23038210403468 L 59.51648618632981 55.328952121676735 L 59.5446286251414 55.42765429150978 L 59.57058628159709 55.5264787433991 L 59.59435655995286 55.62541559498185 L 59.61593708320068 55.72445495265532 L 59.635325693306214 55.82358691256627 L 59.652520451424614 55.92280156160133 L 59.66751963809439 56.022088978378264 L 59.68032175340938 56.121439234238146 L 59.690925517168715 56.22084239423817 L 59.699329869004856 56.32028851814517 L 59.705533968489625 56.41976766142964 L 59.709537195218246 56.51926987626014 L 59.711339148871375 56.61878521249811 M 59.711450832000004 88.31564836440002 L 59.71035009978122 88.4151657904769 L 59.707048013197166 88.5146732648941 L 59.701544902453755 88.61416083698711 L 59.69384131785747 88.71361855808162 L 59.683938029760355 88.8130364824884 L 59.671836028482964 88.91240466849787 L 59.657536524215345 89.01171317937421 L 59.641040946896 89.11095208434912 L 59.62235094606892 89.21011145961478 L 59.601468390718615 89.3091813893163 L 59.57839536908321 89.40815196654326 L 59.553134188445654 89.50701329432043 L 59.525687374902944 89.60575548659742 L 59.496057673113576 89.70436866923727 L 59.46424804602303 89.80284298100389 L 59.430261674567504 89.90116857454818 L 59.394101957355836 89.99933561739272 L 59.3557725103296 90.09733429291502 L 59.31527716640156 90.19515480132921 L 59.27261997507236 90.29278736066595 L 59.22780520202561 90.3902222077507 L 59.18083732870123 90.4874495991799 L 59.131721051847435 90.58445981229544 L 59.08046128305098 90.68124314615687 L 59.02706314824603 90.77778992251145 L 58.97153198720156 90.874090486762 L 58.913873352987395 90.97013520893233 L 58.854093011418925 91.06591448463028 L 58.79219694048047 91.16141873600809 L 58.728191329727565 91.25663841272019 L 58.662082579667924 91.3515639928783 L 58.59387730112148 91.44618598400346 L 58.52358231455924 91.54049492397544 L 58.45120464942129 91.63448138197883 L 58.376751543413825 91.72813595944615 L 58.3002304417854 91.82144929099769 L 58.22164899658242 91.91441204537807 L 58.14101506588389 92.0070149263893 L 58.058336713015734 92.09924867382047 L 57.973622205744306 92.19110406437368 L 57.88688001544974 92.28257191258642 L 57.79811881627879 92.37364307175011 L 57.707347484277406 92.46430843482472 L 57.614575096503145 92.55455893534949 L 57.519810930117465 92.64438554834958 L 57.42306446145805 92.73377929123853 L 57.324345365091126 92.82273122471658 L 57.22366351284408 92.91123245366448 L 57.12102897281822 92.9992741280331 L 57.016452008382046 93.08684744372835 L 56.909943077144824 93.17394364349167 L 56.80151282991093 93.26055401777563 L 56.69117210961475 93.346669905615 L 56.57893195023634 93.43228269549276 L 56.464803575698106 93.51738382620125 L 56.3487983987424 93.60196478769834 L 56.230928019790255 93.68601712195833 L 56.111204225781336 93.76953242381786 L 55.98963898899526 93.85250234181635 L 55.86624446585442 93.9349185790311 L 55.741032995708295 94.01677289390713 L 55.61401709959956 94.09805710108111 L 55.48520947901197 94.17876307220008 L 55.35462301460026 94.2588827367342 L 55.222270764902035 94.33840808278374 L 55.088165965031976 94.41733115788041 L 54.95232202535833 94.49564406978244 L 54.81475253016184 94.57333898726392 L 54.67547123627739 94.65040814089784 L 54.53449207171831 94.72684382383305 L 54.39182913428357 94.80263839256496 L 54.247496690148026 94.87778426769987 L 54.10150917243581 94.95227393471288 L 53.953881179777056 95.02609994469935 L 53.80462747484799 95.09925491511981 L 53.653762982894726 95.1717315305382 L 53.50130279024075 95.24352254335335 L 53.34726214277827 95.31462077452383 L 53.191656444443666 95.38501911428574 L 53.03450125567711 95.45471052286379 L 52.8758122918665 95.52368803117518 L 52.71560542177599 95.59194474152659 L 52.55389666595908 95.65947382830383 L 52.39070219515659 95.72626853865452 L 52.226038328679614 95.7923221931633 L 52.05992153277758 95.85762818651972 L 51.89236841899164 95.9221799881789 L 51.723395742493544 95.98597114301445 L 51.55302040041014 96.04899527196406 L 51.38125943013365 96.11124607266736 L 51.20813000761798 96.17271732009613 L 51.0336494456611 96.23340286717686 L 50.8578351921738 96.29329664540542 L 50.680704828434926 96.3523926654539 L 50.50227606733324 96.41068501776955 L 50.32256675159616 96.4681678731657 L 50.14159485200551 96.5248354834047 L 49.95937846560044 96.58068218177279 L 49.775935813867726 96.63570238364663 L 49.59128524091969 96.6898905870519 L 49.40544521165975 96.74324137321344 L 49.21843430993596 96.79574940709705 L 49.03027123668266 96.84740943794313 L 48.84097480805036 96.89821629979161 L 48.650563953524184 96.94816491199869 L 48.45905771403091 96.99725027974473 L 48.26647524003491 97.0454674945339 L 48.07283578962307 97.09281173468487 L 47.878158726579095 97.13927826581309 L 47.68246351844704 97.18486244130418 L 47.48576973458465 97.22955970277856 L 47.288097044206395 97.27336558054733 L 47.08946521441659 97.31627569405923 L 46.88989410823268 97.35828575233866 L 46.689403682598986 97.3993915544148 L 46.488013986390996 97.43958898974171 L 46.28574515841049 97.47887403860933 L 46.08261742537173 97.51724277254554 L 45.87865109987873 97.5546913547089 L 45.67386657839408 97.5912160402724 L 45.46828433919927 97.62681317679792 L 45.26192494034691 97.6614792046015 L 45.05480901760491 97.69521065710921 L 44.84695728239294 97.72800416120393 L 44.638390519711336 97.75985643756258 L 44.429129586062544 97.79076430098405 L 44.21919540736555 97.82072466070777 L 44.00860897686327 97.84973452072273 L 43.797391353023286 97.8777909800671 L 43.58556365743195 97.90489123311833 L 43.3731470726823 97.93103256987371 L 43.160162840255815 97.95621237622132 L 42.94663225839823 97.98042813420153 L 42.732576679989805 98.0036774222587 L 42.51801751040999 98.02595791548345 L 42.30297620539695 98.04726738584496 L 42.087474268901985 98.06760370241399 L 41.87153325093916 98.08696483157581 L 41.65517474543032 98.10534883723366 L 41.43842038804573 98.1227538810023 L 41.22129185404048 98.13917822239182 L 41.003810856087036 98.15462021898179 L 40.785999142103975 98.16907832658542 L 40.56787849308117 98.182551099404 L 40.349470720901756 98.19503719017146 L 40.13079766616096 98.20653535028914 L 39.91188119598201 98.21704442995062 L 39.692743201829515 98.22656337825667 L 39.47340559732026 98.23509124332041 L 39.25389031603192 98.24262717236243 L 39.0342193093097 98.24917041179611 L 38.8144145440712 98.25472030730296 L 38.59449800060979 98.25927630389805 L 38.374491670396544 98.26283794598552 L 38.154417553881146 98.26540487740414 L 37.934297658291854 98.26697684146288 L 37.71415399543479 98.26755368096666 L 37.4940085794928 98.26713533823201 L 37.273883424824014 98.26572185509286 L 37.05380054376046 98.26331337289633 L 36.83378194440685 98.25991013248867 L 36.613849628439766 98.25551247419104 L 36.39402558890753 98.25012083776562 L 36.17433180803091 98.24373576237157 L 35.95479025500491 98.2363578865111 L 35.735422883801895 98.22798794796564 L 35.516251630976164 98.21862678372209 L 35.29729841347037 98.20827532988906 L 35.078585126423796 98.1969346216033 L 34.860133640982895 98.18460579292622 L 34.64196580211416 98.17129007673037 L 34.42410342641967 98.1569888045763 L 34.20656829995545 98.14170340657931 L 33.989382176052864 98.12543541126645 L 33.77256677314331 98.1081864454237 L 33.55614377258642 98.08995823393326 L 33.34013481650187 98.07075259960111 L 33.124561505605286 98.05057146297464 L 32.909445397048096 98.02941684215075 L 32.6948080022619 98.00729085257386 L 32.480670784807316 97.9841957068245 L 32.267055158227635 97.96013371439797 L 32.05398248390751 97.9351072814735 L 31.841474068936805 97.90911891067351 L 31.629551163979936 97.88217120081342 L 31.41823496115079 97.85426684664178 L 31.20754659189356 97.82540863857072 L 30.997507124869593 97.79559946239702 L 30.78813756385056 97.76484229901347 L 30.579458845618092 97.73314022411074 L 30.37149183787011 97.70049640786993 L 30.164257337134085 97.66691411464545 L 29.957776066687398 97.63239670263864 L 29.752068674485024 97.59694762356195 L 29.54715573109476 97.56057042229372 L 29.34305772764019 97.52326873652379 L 29.13979507375157 97.48504629638963 L 28.937388095524913 97.44590692410341 L 28.735857033489363 97.40585453356975 L 28.535222040583193 97.36489312999431 L 28.33550318013848 97.32302680948334 L 28.136720423874856 97.28025975863397 L 27.93889364990228 97.23659625411567 L 27.7420426407333 97.19204066224249 L 27.54618708130479 97.14659743853649 L 27.351346557009485 97.10027112728218 L 27.15754055173744 97.05306636107208 L 26.96478844592768 97.00498786034348 L 26.773109514630168 96.95604043290636 L 26.58252292557829 96.9062289734627 L 26.393047737272138 96.85555846311694 L 26.204702897072643 96.80403396887786 L 26.017507239306873 96.75166064315196 L 25.831479483384605 96.69844372322818 L 25.646638231926417 96.64438853075416 L 25.463001968903413 96.58950047120409 L 25.280589057788873 96.53378503333819 L 25.099417739721886 96.47724778865383 L 24.919506131683296 96.41989439082836 L 24.740872224683972 96.36173057515376 L 24.56353388196576 96.30276215796312 L 24.387508837215144 96.24299503604902 L 24.21281469278992 96.18243518607389 L 24.039468917958942 96.1210886639722 L 23.867488847155244 96.05896160434507 L 23.696891678242594 95.99606021984668 L 23.527694470795716 95.93239080056308 L 23.359914144394352 95.86795971338313 L 23.193567476931335 95.80277340136185 L 23.028671102934787 95.73683838307612 L 22.86524151190469 95.67016125197281 L 22.70329504666396 95.6027486757095 L 22.542847901724166 95.53460739548763 L 22.383916121666097 95.46574422537843 L 22.22651559953531 95.39616605164152 L 22.07066207525286 95.32587983203629 L 21.91637113404129 95.25489259512614 L 21.763658204866154 95.1832114395756 L 21.612538558893103 95.1108435334405 L 21.463027307960804 95.03779611345114 L 21.315139403069757 94.96407648428864 L 21.168889632887215 94.88969201785449 L 21.024292622268316 94.81465015253335 L 20.88136283079363 94.7389583924492 L 20.74011455132319 94.662624306715 L 20.600561908567247 94.5856555286757 L 20.462718857673774 94.50805975514496 L 20.326599182832993 94.42984474563546 L 20.19221649589896 94.351018321583 L 20.059584235028378 94.27158836556427 L 19.928715663336813 94.19156282050868 L 19.79962386757237 94.11094968890407 L 19.672321756807058 94.02975703199641 L 19.54682206114586 93.94799296898373 L 19.423137330453766 93.8656656762042 L 19.301279933100773 93.78278338631848 L 19.181262054725067 93.69935438748651 L 19.06309569701447 93.61538702253864 L 18.946792676506288 93.53088968814139 L 18.83236462340565 93.44587083395777 L 18.719822980422503 93.36033896180237 L 18.609179001627368 93.27430262479113 L 18.50044375132592 93.18777042648605 L 18.39362810295258 93.10075102003485 L 18.288742737983167 93.01325310730566 L 18.185798144866776 92.92528543801683 L 18.08480461797693 92.836856808862 L 17.985772256582162 92.74797606263037 L 17.88871096383608 92.65865208732252 L 17.793630445787073 92.56889381526153 L 17.70054021040772 92.47871022219982 L 17.609449566643978 92.38811032642154 L 17.520367623484315 92.29710318784076 L 17.433303289048812 92.20569790709551 L 17.348265269698366 92.11390362463769 L 17.265262069164034 92.02172951981903 L 17.184301987696713 91.92918480997322 L 17.10539312123708 91.83627874949414 L 17.02854336060602 91.74302062891039 L 16.953760390715555 91.64941977395632 L 16.881051689800362 91.55548554463944 L 16.81042452866993 91.46122733430438 L 16.74188596998153 91.36665456869365 L 16.675442867533906 91.27177670500497 L 16.61110186558194 91.17660323094567 L 16.548869398172204 91.08114366378383 L 16.488751688499583 90.98540754939663 L 16.43075474828494 90.88940446131572 L 16.374884377173977 90.79314399976991 L 16.321146162157238 90.69663579072514 L 16.269545477011444 90.59988948492189 L 16.22008748176211 90.5029147569101 L 16.17277712216755 90.40572130408178 L 16.12761912922429 90.30831884570122 L 16.084618018693998 90.21071712193307 L 16.043778090651895 90.1129258928684 L 16.00510342905675 90.01495493754861 L 15.968597901342491 89.91681405298758 L 15.934265158031472 89.81851305319199 L 15.902108632369412 89.72006176817992 L 15.872131539982078 89.6214700429978 L 15.84433687855373 89.52274773673601 L 15.818727427527353 89.42390472154288 L 15.7953057478267 89.32495088163759 L 15.77407418160023 89.22589611232166 L 15.75503485198687 89.12675031898948 L 15.738189662903714 89.02752341613775 L 15.723540298855632 88.92822532637408 L 15.711088224766826 88.82886597942469 L 15.700834685834323 88.72945531114148 L 15.692780707403479 88.63000326250842 L 15.686927094865418 88.53051977864753 L 15.683274433576518 88.43101480782425 L 15.681823088799863 88.3314983004528" stroke-miterlimit="10" stroke-width="2.5633703640000003" stroke-dasharray=""/></g><g><g/><text fill="black" stroke="none" font-family="sans-serif" font-size="11pt" font-style="normal" font-weight="normal" text-decoration="normal" x="18.95766273388672" y="114.44694742800002" text-anchor="start" dominant-baseline="alphabetic" xml:space="preserve">Kafka</text></g><path fill="none" stroke="none"/><g><path fill="white" stroke="black" paint-order="fill stroke markers" d=" M 126.30045249622268 78.258189348 L 216.86607670455862 78.258189348 L 216.86607670455862 118.970542188 L 126.30045249622268 118.970542188 L 126.30045249622268 78.258189348 Z" stroke-miterlimit="10" stroke-width="2.4125838720000004" stroke-dasharray=""/></g><g><g/><text fill="black" stroke="none" font-family="sans-serif" font-size="11pt" font-style="normal" font-weight="normal" text-decoration="normal" x="142.66078687822267" y="103.89189298800001" text-anchor="start" dominant-baseline="alphabetic" xml:space="preserve">producer</text></g><g><path fill="white" stroke="black" paint-order="fill stroke markers" d=" M 303.8149569088203 89.41638975600002 L 303.8149569088203 57.75122643600001 L 347.84461257282027 57.75122643600001 L 347.84461257282027 89.41638975600002" stroke-miterlimit="10" stroke-width="2.5633703640000003" stroke-dasharray=""/><path fill="white" stroke="black" paint-order="fill stroke markers" d=" M 347.84461257282027 56.65048504440001 L 347.8435118406015 56.750002470476886 L 347.84020975401745 56.849509944894095 L 347.83470664327405 56.9489975169871 L 347.82700305867775 57.04845523808161 L 347.8170997705806 57.147873162488395 L 347.80499776930327 57.24724134849785 L 347.79069826503564 57.3465498593742 L 347.7742026877163 57.4457887643491 L 347.75551268688923 57.54494813961476 L 347.7346301315389 57.64401806931628 L 347.7115571099035 57.74298864654325 L 347.68629592926595 57.841849974320425 L 347.6588491157232 57.940592166597405 L 347.62921941393387 58.03920534923725 L 347.5974097868433 58.13767966100388 L 347.5634234153878 58.23600525454817 L 347.5272636981761 58.334172297392705 L 347.4889342511499 58.43217097291501 L 347.4484389072218 58.529991481329205 L 347.40578171589266 58.62762404066595 L 347.3609669428459 58.72505888775068 L 347.3139990695215 58.82228627917988 L 347.2648827926677 58.91929649229543 L 347.21362302387126 59.01607982615686 L 347.1602248890663 59.11262660251144 L 347.10469372802186 59.20892716676198 L 347.04703509380766 59.304971888932315 L 346.9872547522392 59.400751164630265 L 346.92535868130074 59.49625541600807 L 346.86135307054786 59.59147509272019 L 346.7952443204882 59.68640067287828 L 346.72703904194174 59.78102266400345 L 346.65674405537953 59.87533160397543 L 346.5843663902416 59.969318061978825 L 346.50991328423413 60.06297263944614 L 346.4333921826057 60.15628597099768 L 346.3548107374027 60.24924872537805 L 346.2741768067042 60.34185160638929 L 346.191498453836 60.43408535382045 L 346.1067839465646 60.52594074437366 L 346.02004175627 60.617408592586415 L 345.93128055709906 60.708479751750104 L 345.8405092250977 60.79914511482471 L 345.74773683732343 60.88939561534948 L 345.65297267093774 60.97922222834956 L 345.5562262022783 61.06861597123853 L 345.4575071059114 61.15756790471657 L 345.35682525366434 61.24606913366447 L 345.25419071363854 61.33411080803308 L 345.14961374920233 61.42168412372834 L 345.0431048179651 61.50878032349165 L 344.9346745707312 61.59539069777562 L 344.82433385043504 61.68150658561499 L 344.7120936910566 61.76711937549275 L 344.5979653165184 61.85222050620124 L 344.4819601395627 61.93680146769832 L 344.36408976061057 62.02085380195832 L 344.2443659666016 62.104369103817845 L 344.12280072981554 62.18733902181633 L 343.9994062066747 62.2697552590311 L 343.8741947365286 62.35160957390711 L 343.74717884041985 62.4328937810811 L 343.6183712198323 62.51359975220007 L 343.48778475542053 62.59371941673418 L 343.3554325057223 62.67324476278373 L 343.2213277058523 62.7521678378804 L 343.0854837661786 62.83048074978243 L 342.9479142709821 62.908175667263905 L 342.80863297709766 62.98524482089782 L 342.6676538125386 63.06168050383303 L 342.52499087510387 63.13747507256495 L 342.3806584309683 63.212620947699854 L 342.2346709132561 63.28711061471286 L 342.08704292059736 63.360936624699335 L 341.93778921566826 63.4340915951198 L 341.786924723715 63.50656821053819 L 341.63446453106104 63.578359223353345 L 341.4804238835986 63.64945745452381 L 341.32481818526395 63.71985579428573 L 341.16766299649737 63.78954720286377 L 341.0089740326868 63.85852471117517 L 340.8487671625963 63.92678142152658 L 340.6870584067794 63.994310508303826 L 340.52386393597686 64.06110521865452 L 340.3592000694999 64.12715887316328 L 340.19308327359784 64.19246486651971 L 340.0255301598119 64.25701666817889 L 339.85655748331385 64.32080782301445 L 339.6861821412304 64.38383195196405 L 339.51442117095394 64.44608275266734 L 339.34129174843827 64.5075540000961 L 339.16681118648137 64.56823954717684 L 338.9909969329941 64.62813332540541 L 338.8138665692552 64.6872293454539 L 338.63543780815354 64.74552169776953 L 338.4557284924164 64.80300455316568 L 338.2747565928258 64.8596721634047 L 338.0925402064207 64.91551886177277 L 337.909097554688 64.97053906364663 L 337.72444698173996 65.0247272670519 L 337.53860695248005 65.07807805321343 L 337.35159605075626 65.13058608709704 L 337.16343297750296 65.18224611794311 L 336.97413654887066 65.23305297979161 L 336.78372569434447 65.28300159199867 L 336.5922194548512 65.33208695974473 L 336.3996369808552 65.38030417453389 L 336.20599753044337 65.42764841468485 L 336.0113204673994 65.47411494581308 L 335.81562525926734 65.51969912130417 L 335.6189314754049 65.56439638277854 L 335.4212587850267 65.60820226054732 L 335.2226269552369 65.65111237405922 L 335.023055849053 65.69312243233865 L 334.8225654234193 65.73422823441479 L 334.62117572721127 65.7744256697417 L 334.41890689923076 65.81371071860933 L 334.215779166192 65.85207945254552 L 334.011812840699 65.88952803470889 L 333.80702831921434 65.9260527202724 L 333.60144608001957 65.96164985679792 L 333.3950866811672 65.99631588460149 L 333.1879707584252 66.03004733710921 L 332.9801190232132 66.06284084120392 L 332.7715522605316 66.09469311756257 L 332.5622913268828 66.12560098098405 L 332.35235714818583 66.15556134070776 L 332.1417707176836 66.18457120072271 L 331.93055309384357 66.21262766006708 L 331.7187253982522 66.23972791311832 L 331.5063088135026 66.26586924987369 L 331.2933245810761 66.2910490562213 L 331.0797939992185 66.31526481420151 L 330.8657384208101 66.3385141022587 L 330.65117925123025 66.36079459548343 L 330.43613794621723 66.38210406584494 L 330.2206360097223 66.40244038241397 L 330.00469499175944 66.42180151157581 L 329.7883364862506 66.44018551723366 L 329.571582128866 66.45759056100228 L 329.3544535948608 66.4740149023918 L 329.1369725969073 66.48945689898177 L 328.91916088292425 66.5039150065854 L 328.70104023390144 66.51738777940398 L 328.48263246172206 66.52987387017144 L 328.26395940698126 66.54137203028912 L 328.0450429368023 66.55188110995061 L 327.8259049426498 66.56140005825667 L 327.60656733814056 66.5699279233204 L 327.3870520568522 66.57746385236243 L 327.16738105012996 66.58400709179611 L 326.9475762848915 66.58955698730296 L 326.7276597414301 66.59411298389804 L 326.50765341121684 66.59767462598552 L 326.2875792947014 66.60024155740412 L 326.0674593991121 66.60181352146286 L 325.8473157362551 66.60239036096665 L 325.6271703203131 66.601972018232 L 325.4070451656443 66.60055853509284 L 325.1869622845808 66.59815005289633 L 324.96694368522714 66.59474681248865 L 324.74701136926006 66.59034915419102 L 324.52718732972784 66.5849575177656 L 324.3074935488512 66.57857244237155 L 324.0879519958252 66.57119456651108 L 323.8685846246222 66.56282462796563 L 323.64941337179647 66.55346346372208 L 323.43046015429064 66.54311200988904 L 323.2117468672441 66.5317713016033 L 322.9932953818032 66.5194424729262 L 322.77512754293446 66.50612675673037 L 322.55726516723996 66.4918254845763 L 322.33973004077575 66.47654008657929 L 322.12254391687316 66.46027209126643 L 321.9057285139636 66.44302312542368 L 321.6893055134067 66.42479491393324 L 321.47329655732216 66.40558927960109 L 321.25772324642554 66.38540814297464 L 321.0426071378684 66.36425352215073 L 320.8279697430822 66.34212753257384 L 320.6138325256276 66.31903238682447 L 320.4002168990479 66.29497039439796 L 320.1871442247278 66.26994396147349 L 319.9746358097571 66.2439555906735 L 319.7627129048002 66.21700788081341 L 319.5513967019711 66.18910352664176 L 319.34070833271386 66.1602453185707 L 319.13066886568987 66.13043614239702 L 318.92129930467087 66.09967897901345 L 318.7126205864384 66.06797690411072 L 318.5046535786904 66.03533308786992 L 318.2974190779544 66.00175079464545 L 318.09093780750766 65.96723338263864 L 317.88523041530533 65.93178430356194 L 317.68031747191503 65.89540710229372 L 317.4762194684605 65.85810541652378 L 317.27295681457184 65.81988297638962 L 317.0705498363452 65.7807436041034 L 316.86901877430967 65.74069121356973 L 316.66838378140346 65.69972980999431 L 316.46866492095876 65.65786348948332 L 316.26988216469516 65.61509643863396 L 316.07205539072254 65.57143293411565 L 315.8752043815536 65.52687734224247 L 315.67934882212506 65.48143411853648 L 315.4845082978298 65.43510780728218 L 315.29070229255774 65.38790304107208 L 315.097950186748 65.33982454034347 L 314.90627125545046 65.29087711290636 L 314.7156846663986 65.2410656534627 L 314.5262094780924 65.19039514311692 L 314.33786463789295 65.13887064887784 L 314.15066898012714 65.08649732315195 L 313.9646412242049 65.03328040322816 L 313.77979997274673 64.97922521075414 L 313.5961637097237 64.92433715120407 L 313.41375079860916 64.86862171333819 L 313.2325794805422 64.81208446865382 L 313.0526678725036 64.75473107082834 L 312.8740339655043 64.69656725515374 L 312.696695622786 64.63759883796311 L 312.52067057803544 64.57783171604902 L 312.3459764336102 64.51727186607387 L 312.1726306587792 64.45592534397218 L 312.00065058797554 64.39379828434507 L 311.8300534190629 64.33089689984668 L 311.660856211616 64.26722748056307 L 311.49307588521464 64.20279639338311 L 311.3267292177516 64.13761008136183 L 311.16183284375506 64.0716750630761 L 310.998403252725 64.00499793197281 L 310.8364567874842 63.9375853557095 L 310.67600964254444 63.86944407548762 L 310.51707786248636 63.80058090537841 L 310.3596773403556 63.7310027316415 L 310.20382381607317 63.660716512036274 L 310.0495328748616 63.58972927512613 L 309.89681994568645 63.518048119575596 L 309.7457002997134 63.44568021344049 L 309.59618904878107 63.372632793451125 L 309.44830114389003 63.29891316428863 L 309.3020513737075 63.22452869785448 L 309.1574543630886 63.149486832533334 L 309.0145245716139 63.0737950724492 L 308.8732762921435 62.997460986715 L 308.7337236493875 62.92049220867569 L 308.59588059849403 62.842896435144944 L 308.4597609236533 62.76468142563545 L 308.32537823671925 62.68585500158298 L 308.19274597584865 62.60642504556425 L 308.0618774041571 62.526399500508674 L 307.93278560839263 62.44578636890406 L 307.80548349762734 62.3645937119964 L 307.67998380196616 62.28282964898372 L 307.55629907127405 62.20050235620419 L 307.43444167392107 62.11762006631847 L 307.31442379554534 62.0341910674865 L 307.19625743783473 61.95022370253862 L 307.0799544173266 61.86572636814137 L 306.9655263642259 61.78070751395776 L 306.85298472124276 61.695175641802365 L 306.74234074244765 61.60913930479112 L 306.6336054921462 61.52260710648604 L 306.52678984377286 61.43558770003484 L 306.42190447880347 61.348089787305646 L 306.31895988568704 61.26012211801682 L 306.2179663587972 61.17169348886198 L 306.11893399740245 61.08281274263036 L 306.02187270465635 60.99348876732251 L 305.9267921866074 60.90373049526153 L 305.833701951228 60.81354690219982 L 305.74261130746424 60.722947006421535 L 305.6535293643046 60.63193986784075 L 305.5664650298691 60.54053458709549 L 305.48142701051864 60.44874030463767 L 305.3984238099843 60.356566199819014 L 305.317463728517 60.26402148997322 L 305.23855486205736 60.17111542949413 L 305.1617051014263 60.07785730891038 L 305.08692213153586 59.98425645395631 L 305.01421343062066 59.89032222463943 L 304.9435862694902 59.79606401430437 L 304.8750477108018 59.70149124869363 L 304.8086046083542 59.606613385004955 L 304.7442636064022 59.511439910945654 L 304.6820311389925 59.41598034378382 L 304.6219134293199 59.32024422939662 L 304.5639164891052 59.224241141315716 L 304.50804611799424 59.127980679769905 L 304.4543079029775 59.03147247072513 L 304.40270721783173 58.93472616492187 L 304.3532492225824 58.83775143691009 L 304.30593886298783 58.74055798408177 L 304.2607808700446 58.64315552570121 L 304.21777975951426 58.54555380193307 L 304.17693983147217 58.44776257286839 L 304.13826516987706 58.3497916175486 L 304.1017596421628 58.25165073298757 L 304.06742689885175 58.15334973319199 L 304.0352703731897 58.054898448179905 L 304.00529328080233 57.95630672299779 L 303.977498619374 57.85758441673599 L 303.95188916834763 57.75874140154287 L 303.92846748864696 57.659787561637586 L 303.9072359224205 57.56073279232165 L 303.88819659280716 57.46158699898947 L 303.871351403724 57.36236009613774 L 303.8567020396759 57.26306200637407 L 303.8442499655871 57.16370265942468 L 303.8339964266546 57.06429199114147 L 303.82594244822377 56.96483994250841 L 303.8200888356857 56.86535645864751 L 303.8164361743968 56.76585148782425 L 303.81498482962013 56.666334980452774 L 303.815734946489 56.56681688810091 L 303.8186864499923 56.46730716249495 L 303.8238390449822 56.367815754524536 L 303.8311922162034 56.268352613247544 L 303.84074522834504 56.16892768489523 L 303.85249712611375 56.06955091187757 L 303.86644673432954 55.970232231789055 L 303.88259265804334 55.87098157641492 L 303.9009332826761 55.771808870738006 L 303.92146677418066 55.672724031946224 L 303.94419107922505 55.57373696844089 L 303.9691039253977 55.47485757884587 L 303.9962028214347 55.376095751017715 L 304.02548505746904 55.27746136105691 L 304.05694770530147 55.17896427232026 L 304.0905876186936 55.08061433443455 L 304.1264014336819 54.98242138231162 L 304.16438556891484 54.884395235164845 L 304.2045362260106 54.786545695527266 L 304.24684938993676 54.68888254827129 L 304.29132082941237 54.59141555963026 L 304.3379460973304 54.49415447622183 L 304.386720531203 54.39710902407328 L 304.4376392536274 54.30028890764895 L 304.4906971727738 54.20370380887981 L 304.5458889828945 54.10736338619524 L 304.6032091648545 54.01127727355723 L 304.6626519866833 53.91545507949698 L 304.7242115041483 53.81990638615403 L 304.787881561349 53.724640748318095 L 304.8536557913328 53.629667692473575 L 304.92152761673157 53.53499671584691 L 304.99149025041925 53.440637285456866 L 305.06353669619074 53.34659883716785 L 305.13765974946153 53.252890774746334 L 305.2138519979881 53.15952246892046 L 305.2921058226091 53.066503256443006 L 305.3724133980072 52.973842439157714 L 305.4547666934918 52.88154928306908 L 305.53915747380205 52.78963301741581 L 305.6255772999302 52.69810283374788 L 305.7140175299657 52.606967885007364 L 305.80446931995914 52.51623728461321 L 305.89692362480696 52.425920105549835 L 305.99137119915576 52.33602537945989 L 306.08780259832673 52.24656209574106 L 306.1862081792604 52.15753920064718 L 306.2865781014806 52.06896559639356 L 306.38890232807876 51.980850140266824 L 306.49317062671753 51.893201643739154 L 306.59937257065394 51.80602887158716 L 306.7074975397821 51.71934054101541 L 306.8175347216951 51.63314532078473 L 306.9294731127666 51.5474518303453 L 307.04330151925063 51.46226863897477 L 307.1590085584015 51.37760426492128 L 307.2765826596117 51.29346717455169 L 307.39601206556904 51.20986578150492 L 307.5172848334325 51.12680844585059 L 307.6403888360263 51.04430347325308 L 307.76531176305286 50.962359114140874 L 307.89204112232346 50.88098356288161 L 308.0205642410079 50.800184956962596 L 308.1508682669013 50.71997137617709 L 308.2829401697097 50.64035084181633 L 308.41676674235293 50.5613313158674 L 308.5523346022852 50.48292070021704 L 308.6896301928335 50.40512683586149 L 308.82863978455316 50.32795750212234 L 308.9693494766009 50.25142041586866 L 309.1117451981247 50.17552323074529 L 309.25581270967115 50.100273536407514 L 309.40153760460913 50.025678857762045 L 309.54890531057055 49.95174665421458 L 309.69790109090764 49.878484318923874 L 309.84851004616655 49.8058991780624 L 310.00071711557723 49.733998490083756 L 310.1545070785596 49.662789444996825 L 310.3098645562455 49.59227916364677 L 310.4667740130166 49.52247469700298 L 310.62521975805805 49.45338302545394 L 310.78518594692736 49.38501105810922 L 310.9466565831389 49.3173656321086 L 311.1096155197637 49.25045351193829 L 311.2740464610438 49.18428138875455 L 311.4399329640221 49.118855879714566 L 311.6072584401866 49.054183527314706 L 311.77600615712913 48.990270798736326 L 311.94615924021855 48.927124085199026 L 312.1177006742884 48.864749701321536 L 312.2906133053382 48.80315388449026 L 312.46487984224893 48.74234279423555 L 312.64048285851214 48.68232251161576 L 312.81740479397257 48.62309903860914 L 312.99562795658403 48.56467829751363 L 313.1751345241788 48.50706613035466 L 313.3559065462498 48.450268298300934 L 313.5379259457453 48.394290481088326 L 313.7211745208772 48.33913827645191 L 313.9056339469406 48.28481719956619 L 314.09128577814664 48.23133268249359 L 314.27811144946685 48.17869007364124 L 314.4660922784899 48.12689463722616 L 314.6552094672894 48.07595155274883 L 314.8454441043042 48.02586591447525 L 315.036777166229 47.976642730927495 L 315.22918951991716 47.92828692438291 L 315.4226619242936 47.88080333038186 L 315.61717503227914 47.83419669724416 L 315.812709392725 47.788471685594295 L 316.0092454523582 47.74363286789533 L 316.20676355773645 47.69968472799165 L 316.4052439572139 47.65663166066065 L 316.60466680291586 47.614477971173166 L 316.8050121527241 47.57322787486302 L 317.0062599722705 47.532885496705475 L 317.2083901369409 47.49345487090473 L 317.4113824338872 47.45493994049049 L 317.61521656404886 47.41734455692372 L 317.81987214418274 47.38067247971144 L 318.0253287089014 47.34492737603081 L 318.23156571271954 47.310112820362406 L 318.4385625321087 47.2762322941328 L 318.64629846755935 47.24328918536636 L 318.8547527456511 47.21128678834652 L 319.0639045211299 47.18022830328631 L 319.27373287899246 47.150116836008365 L 319.4842168365778 47.120955397634305 L 319.6953353456656 47.09274690428368 L 319.907067294581 47.06549417678231 L 320.1193915103053 47.03919994038023 L 320.3322867605941 47.01386682447918 L 320.54573175609966 46.98949736236963 L 320.7597051525004 46.96609399097749 L 320.9741855526348 46.94365905062039 L 321.18915150864177 46.92219478477368 L 321.40458152410474 46.901703339846044 L 321.62045405620177 46.882186764964906 L 321.83674751785946 46.86364701177149 L 322.0534402799119 46.84608593422567 L 322.2705106732636 46.82950528842056 L 322.4879369910559 46.81390673240693 L 322.7056974908383 46.79929182602737 L 322.9237703967424 46.78566203076035 L 323.1421339016592 46.77301870957403 L 323.3607661694201 46.76136312679001 L 323.5796453369808 46.750696447956834 L 323.7987495166067 46.74101973973351 L 324.01805679806245 46.732333969782786 L 324.2375452508028 46.724640006674434 L 324.4571929261652 46.717938619798346 L 324.6769778595653 46.71223047928761 L 324.89687807269286 46.70751615595155 L 325.1168715757098 46.703796121218545 L 325.3369363694491 46.701070747088984 L 325.5570504476149 46.699340306098 L 325.77719179898276 46.698604971288255 L 325.99733840960096 46.69886481619261 L 326.2174682649919 46.700119814826806 L 326.43755935235345 46.702369841692004 L 326.65758966276036 46.705614671787416 L 326.87753719336496 46.709853980632715 L 327.0973799495974 46.715087344300564 L 327.3170959473652 46.72131423945895 L 327.53666321525185 46.72853404342355 L 327.75605979671343 46.73674603421998 L 327.97526375227466 46.745949390656016 L 328.19425316172266 46.75614319240367 L 328.4130061262989 46.767326420091266 L 328.6315007708893 46.77949795540535 L 328.8497152462115 46.792656581202536 L 329.0676277309997 46.80680098163122 L 329.285216434187 46.82192974226314 L 329.50245959708457 46.83804135023483 L 329.71933549555706 46.85513419439893 L 329.9358224421954 46.87320656548526 L 330.1518987884852 46.89225665627179 L 330.367542926972 46.912282561765295 L 330.5827332934217 46.93328227939192 L 330.79744836897686 46.95525370919741 L 331.01166668230894 46.97819465405708 L 331.22536681176507 47.00210281989557 L 331.4385273875104 47.026975815916224 L 331.6511270936651 47.05281115484016 L 331.8631446704355 47.07960625315501 L 332.07455891624073 47.107358431373285 L 332.2853486898324 47.136064914300285 L 332.49549291240885 47.16572283131164 L 332.7049705697228 47.19632921664036 L 332.9137607141832 47.22788100967341 L 333.12184246694954 47.260375055257796 L 333.32919502001994 47.29380810401604 L 333.535797638312 47.3281768126711 L 333.74162966173583 47.36347774438077 L 333.9466705072608 47.39970736908131 L 334.1508996709732 47.436862063840415 L 334.35429673012686 47.47493811321959 L 334.55684134518526 47.51393170964561 L 334.7585132618558 47.55383895379134 L 334.95929231311476 47.59465585496562 L 335.15915842122445 47.63637833151234 L 335.35809159974053 47.679002211218624 L 335.5560719555109 47.72252323173201 L 335.75307969066506 47.76693704098672 L 335.94909510459365 47.812239197638846 L 336.14409859591854 47.85842517151046 L 336.33807066445314 47.905490344042676 L 336.5309919131523 47.95343000875745 L 336.72284305005184 48.00223937172827 L 336.913604890198 48.05191355205951 L 337.10325835756566 48.10244758237453 L 337.29178448696626 48.15383640931242 L 337.4791644259438 48.20607489403329 L 337.66537943666066 48.25915781273222 L 337.85041089777087 48.31307985716156 L 338.0342403062825 48.36783563516181 L 338.21684927940805 48.423419671200804 L 338.3982195564022 48.479826406921255 L 338.5783330003884 48.53705020169659 L 338.75717160017246 48.59508533319502 L 338.93471747204336 48.65392599795177 L 339.1109528615618 48.71356631194938 L 339.2858601453359 48.77400031120615 L 339.4594218327828 48.835221952372535 L 339.6316205678786 48.89722511333542 L 339.8024391308931 48.96000359383039 L 339.9718604401125 49.0235511160617 L 340.13986755354694 49.08786132533009 L 340.30644367062513 49.152927790668215 L 340.47157213387425 49.21874400548377 L 340.63523643058545 49.285303388210124 L 340.79742019446553 49.35259928296446 L 340.9581072072732 49.420624960213395 L 341.1172814004412 49.489373617445885 L 341.2749268566827 49.55883837985349 L 341.43102781158353 49.62901230101787 L 341.5855686551783 49.69988836360538 L 341.7385339335114 49.77145948006883 L 341.8899083501825 49.8437184933562 L 342.039676767876 49.916658177626395 L 342.1878242098751 49.99027123897176 L 342.3343358615588 50.0645503161475 L 342.4791970718843 50.13948798130782 L 342.6223933548511 50.21507674074863 L 342.7639103909503 50.29130903565699 L 342.9037340285962 50.36817724286692 L 343.0418502855416 50.44567367562176 L 343.17824535027586 50.52379058434283 L 343.3129055834062 50.602520157404335 L 343.44581751902143 50.68185452191459 L 343.57696786603884 50.76178574450325 L 343.706343509533 50.84230583211467 L 343.8339315120474 50.92340673280718 L 343.95971911488806 51.00508033655831 L 344.08369373939956 51.08731847607572 L 344.2058429882227 51.17011292761402 L 344.32615464653446 51.25345541179703 L 344.44461668326926 51.33733759444579 L 344.5612172523221 51.42175108741194 L 344.67594469373324 51.506687449416525 L 344.78878753485424 51.592138186894125 L 344.8997344914949 51.6780947548422 L 345.00877446905207 51.76454855767558 L 345.11589656361883 51.85149095008604 L 345.22109006307505 51.93891323790678 L 345.3243444481584 52.02680667898187 L 345.42564939351644 52.115162484040454 L 345.5249947687391 52.20397181757565 L 345.62237063937147 52.293225798728116 L 345.71776726790785 52.38291550217411 L 345.8111751147647 52.47303195901802 L 345.9025848392353 52.56356615768928 L 345.9919873004234 52.65450904484346 L 346.0793735581572 52.74585152626762 L 346.16473487388396 52.837584467789746 L 346.2480627115431 52.92969869619212 L 346.3293487384204 53.02218500012867 L 346.40858482598077 53.11503413104609 L 346.4857630506816 53.20823680410863 L 346.5608756947647 53.30178369912667 L 346.6339152470283 53.39566546148867 L 346.70487440357795 53.48987270309661 L 346.7737460685572 53.58439600330485 L 346.8405233548569 53.67922590986214 L 346.9051995848041 53.77435293985683 L 346.96776829082967 53.86976758066522 L 347.0282232161152 53.96546029090272 L 347.08655831521844 54.06142150137806 L 347.14276775467823 54.15764161605015 L 347.1968459135974 54.254111012987714 L 347.24878738420506 54.350820045331446 L 347.2985869723975 54.4477590422587 L 347.3462396982574 54.54491830995058 L 347.3917407965519 54.64228813256127 L 347.43508571720906 54.739858773189646 L 347.47627012577294 54.83762047485297 L 347.515289903837 54.93556346146252 L 347.5521411494559 55.033677938801276 L 347.5868201775359 55.131954095503254 L 347.619323520203 55.23038210403468 L 347.6496479271501 55.328952121676735 L 347.6777903659617 55.42765429150978 L 347.70374802241736 55.5264787433991 L 347.7275183007731 55.62541559498185 L 347.74909882402096 55.72445495265532 L 347.7684874341265 55.82358691256627 L 347.7856821922449 55.92280156160133 L 347.8006813789147 56.022088978378264 L 347.8134834942297 56.121439234238146 L 347.824087257989 56.22084239423817 L 347.8324916098251 56.32028851814517 L 347.8386957093099 56.41976766142964 L 347.8426989360385 56.51926987626014 L 347.84450088969163 56.61878521249811 M 347.84461257282027 88.31564836440002 L 347.8435118406015 88.4151657904769 L 347.84020975401745 88.5146732648941 L 347.83470664327405 88.61416083698711 L 347.82700305867775 88.71361855808162 L 347.8170997705806 88.8130364824884 L 347.80499776930327 88.91240466849787 L 347.79069826503564 89.01171317937421 L 347.7742026877163 89.11095208434912 L 347.75551268688923 89.21011145961478 L 347.7346301315389 89.3091813893163 L 347.7115571099035 89.40815196654326 L 347.68629592926595 89.50701329432043 L 347.6588491157232 89.60575548659742 L 347.62921941393387 89.70436866923727 L 347.5974097868433 89.80284298100389 L 347.5634234153878 89.90116857454818 L 347.5272636981761 89.99933561739272 L 347.4889342511499 90.09733429291502 L 347.4484389072218 90.19515480132921 L 347.40578171589266 90.29278736066595 L 347.3609669428459 90.3902222077507 L 347.3139990695215 90.4874495991799 L 347.2648827926677 90.58445981229544 L 347.21362302387126 90.68124314615687 L 347.1602248890663 90.77778992251145 L 347.10469372802186 90.874090486762 L 347.04703509380766 90.97013520893233 L 346.9872547522392 91.06591448463028 L 346.92535868130074 91.16141873600809 L 346.86135307054786 91.25663841272019 L 346.7952443204882 91.3515639928783 L 346.72703904194174 91.44618598400346 L 346.65674405537953 91.54049492397544 L 346.5843663902416 91.63448138197883 L 346.50991328423413 91.72813595944615 L 346.4333921826057 91.82144929099769 L 346.3548107374027 91.91441204537807 L 346.2741768067042 92.0070149263893 L 346.191498453836 92.09924867382047 L 346.1067839465646 92.19110406437368 L 346.02004175627 92.28257191258642 L 345.93128055709906 92.37364307175011 L 345.8405092250977 92.46430843482472 L 345.74773683732343 92.55455893534949 L 345.65297267093774 92.64438554834958 L 345.5562262022783 92.73377929123853 L 345.4575071059114 92.82273122471658 L 345.35682525366434 92.91123245366448 L 345.25419071363854 92.9992741280331 L 345.14961374920233 93.08684744372835 L 345.0431048179651 93.17394364349167 L 344.9346745707312 93.26055401777563 L 344.82433385043504 93.346669905615 L 344.7120936910566 93.43228269549276 L 344.5979653165184 93.51738382620125 L 344.4819601395627 93.60196478769834 L 344.36408976061057 93.68601712195833 L 344.2443659666016 93.76953242381786 L 344.12280072981554 93.85250234181635 L 343.9994062066747 93.9349185790311 L 343.8741947365286 94.01677289390713 L 343.74717884041985 94.09805710108111 L 343.6183712198323 94.17876307220008 L 343.48778475542053 94.2588827367342 L 343.3554325057223 94.33840808278374 L 343.2213277058523 94.41733115788041 L 343.0854837661786 94.49564406978244 L 342.9479142709821 94.57333898726392 L 342.80863297709766 94.65040814089784 L 342.6676538125386 94.72684382383305 L 342.52499087510387 94.80263839256496 L 342.3806584309683 94.87778426769987 L 342.2346709132561 94.95227393471288 L 342.08704292059736 95.02609994469935 L 341.93778921566826 95.09925491511981 L 341.786924723715 95.1717315305382 L 341.63446453106104 95.24352254335335 L 341.4804238835986 95.31462077452383 L 341.32481818526395 95.38501911428574 L 341.16766299649737 95.45471052286379 L 341.0089740326868 95.52368803117518 L 340.8487671625963 95.59194474152659 L 340.6870584067794 95.65947382830383 L 340.52386393597686 95.72626853865452 L 340.3592000694999 95.7923221931633 L 340.19308327359784 95.85762818651972 L 340.0255301598119 95.9221799881789 L 339.85655748331385 95.98597114301445 L 339.6861821412304 96.04899527196406 L 339.51442117095394 96.11124607266736 L 339.34129174843827 96.17271732009613 L 339.16681118648137 96.23340286717686 L 338.9909969329941 96.29329664540542 L 338.8138665692552 96.3523926654539 L 338.63543780815354 96.41068501776955 L 338.4557284924164 96.4681678731657 L 338.2747565928258 96.5248354834047 L 338.0925402064207 96.58068218177279 L 337.909097554688 96.63570238364663 L 337.72444698173996 96.6898905870519 L 337.53860695248005 96.74324137321344 L 337.35159605075626 96.79574940709705 L 337.16343297750296 96.84740943794313 L 336.97413654887066 96.89821629979161 L 336.78372569434447 96.94816491199869 L 336.5922194548512 96.99725027974473 L 336.3996369808552 97.0454674945339 L 336.20599753044337 97.09281173468487 L 336.0113204673994 97.13927826581309 L 335.81562525926734 97.18486244130418 L 335.6189314754049 97.22955970277856 L 335.4212587850267 97.27336558054733 L 335.2226269552369 97.31627569405923 L 335.023055849053 97.35828575233866 L 334.8225654234193 97.3993915544148 L 334.62117572721127 97.43958898974171 L 334.41890689923076 97.47887403860933 L 334.215779166192 97.51724277254554 L 334.011812840699 97.5546913547089 L 333.80702831921434 97.5912160402724 L 333.60144608001957 97.62681317679792 L 333.3950866811672 97.6614792046015 L 333.1879707584252 97.69521065710921 L 332.9801190232132 97.72800416120393 L 332.7715522605316 97.75985643756258 L 332.5622913268828 97.79076430098405 L 332.35235714818583 97.82072466070777 L 332.1417707176836 97.84973452072273 L 331.93055309384357 97.8777909800671 L 331.7187253982522 97.90489123311833 L 331.5063088135026 97.93103256987371 L 331.2933245810761 97.95621237622132 L 331.0797939992185 97.98042813420153 L 330.8657384208101 98.0036774222587 L 330.65117925123025 98.02595791548345 L 330.43613794621723 98.04726738584496 L 330.2206360097223 98.06760370241399 L 330.00469499175944 98.08696483157581 L 329.7883364862506 98.10534883723366 L 329.571582128866 98.1227538810023 L 329.3544535948608 98.13917822239182 L 329.1369725969073 98.15462021898179 L 328.91916088292425 98.16907832658542 L 328.70104023390144 98.182551099404 L 328.48263246172206 98.19503719017146 L 328.26395940698126 98.20653535028914 L 328.0450429368023 98.21704442995062 L 327.8259049426498 98.22656337825667 L 327.60656733814056 98.23509124332041 L 327.3870520568522 98.24262717236243 L 327.16738105012996 98.24917041179611 L 326.9475762848915 98.25472030730296 L 326.7276597414301 98.25927630389805 L 326.50765341121684 98.26283794598552 L 326.2875792947014 98.26540487740414 L 326.0674593991121 98.26697684146288 L 325.8473157362551 98.26755368096666 L 325.6271703203131 98.26713533823201 L 325.4070451656443 98.26572185509286 L 325.1869622845808 98.26331337289633 L 324.96694368522714 98.25991013248867 L 324.74701136926006 98.25551247419104 L 324.52718732972784 98.25012083776562 L 324.3074935488512 98.24373576237157 L 324.0879519958252 98.2363578865111 L 323.8685846246222 98.22798794796564 L 323.64941337179647 98.21862678372209 L 323.43046015429064 98.20827532988906 L 323.2117468672441 98.1969346216033 L 322.9932953818032 98.18460579292622 L 322.77512754293446 98.17129007673037 L 322.55726516723996 98.1569888045763 L 322.33973004077575 98.14170340657931 L 322.12254391687316 98.12543541126645 L 321.9057285139636 98.1081864454237 L 321.6893055134067 98.08995823393326 L 321.47329655732216 98.07075259960111 L 321.25772324642554 98.05057146297464 L 321.0426071378684 98.02941684215075 L 320.8279697430822 98.00729085257386 L 320.6138325256276 97.9841957068245 L 320.4002168990479 97.96013371439797 L 320.1871442247278 97.9351072814735 L 319.9746358097571 97.90911891067351 L 319.7627129048002 97.88217120081342 L 319.5513967019711 97.85426684664178 L 319.34070833271386 97.82540863857072 L 319.13066886568987 97.79559946239702 L 318.92129930467087 97.76484229901347 L 318.7126205864384 97.73314022411074 L 318.5046535786904 97.70049640786993 L 318.2974190779544 97.66691411464545 L 318.09093780750766 97.63239670263864 L 317.88523041530533 97.59694762356195 L 317.68031747191503 97.56057042229372 L 317.4762194684605 97.52326873652379 L 317.27295681457184 97.48504629638963 L 317.0705498363452 97.44590692410341 L 316.86901877430967 97.40585453356975 L 316.66838378140346 97.36489312999431 L 316.46866492095876 97.32302680948334 L 316.26988216469516 97.28025975863397 L 316.07205539072254 97.23659625411567 L 315.8752043815536 97.19204066224249 L 315.67934882212506 97.14659743853649 L 315.4845082978298 97.10027112728218 L 315.29070229255774 97.05306636107208 L 315.097950186748 97.00498786034348 L 314.90627125545046 96.95604043290636 L 314.7156846663986 96.9062289734627 L 314.5262094780924 96.85555846311694 L 314.33786463789295 96.80403396887786 L 314.15066898012714 96.75166064315196 L 313.9646412242049 96.69844372322818 L 313.77979997274673 96.64438853075416 L 313.5961637097237 96.58950047120409 L 313.41375079860916 96.53378503333819 L 313.2325794805422 96.47724778865383 L 313.0526678725036 96.41989439082836 L 312.8740339655043 96.36173057515376 L 312.696695622786 96.30276215796312 L 312.52067057803544 96.24299503604902 L 312.3459764336102 96.18243518607389 L 312.1726306587792 96.1210886639722 L 312.00065058797554 96.05896160434507 L 311.8300534190629 95.99606021984668 L 311.660856211616 95.93239080056308 L 311.49307588521464 95.86795971338313 L 311.3267292177516 95.80277340136185 L 311.16183284375506 95.73683838307612 L 310.998403252725 95.67016125197281 L 310.8364567874842 95.6027486757095 L 310.67600964254444 95.53460739548763 L 310.51707786248636 95.46574422537843 L 310.3596773403556 95.39616605164152 L 310.20382381607317 95.32587983203629 L 310.0495328748616 95.25489259512614 L 309.89681994568645 95.1832114395756 L 309.7457002997134 95.1108435334405 L 309.59618904878107 95.03779611345114 L 309.44830114389003 94.96407648428864 L 309.3020513737075 94.88969201785449 L 309.1574543630886 94.81465015253335 L 309.0145245716139 94.7389583924492 L 308.8732762921435 94.662624306715 L 308.7337236493875 94.5856555286757 L 308.59588059849403 94.50805975514496 L 308.4597609236533 94.42984474563546 L 308.32537823671925 94.351018321583 L 308.19274597584865 94.27158836556427 L 308.0618774041571 94.19156282050868 L 307.93278560839263 94.11094968890407 L 307.80548349762734 94.02975703199641 L 307.67998380196616 93.94799296898373 L 307.55629907127405 93.8656656762042 L 307.43444167392107 93.78278338631848 L 307.31442379554534 93.69935438748651 L 307.19625743783473 93.61538702253864 L 307.0799544173266 93.53088968814139 L 306.9655263642259 93.44587083395777 L 306.85298472124276 93.36033896180237 L 306.74234074244765 93.27430262479113 L 306.6336054921462 93.18777042648605 L 306.52678984377286 93.10075102003485 L 306.42190447880347 93.01325310730566 L 306.31895988568704 92.92528543801683 L 306.2179663587972 92.836856808862 L 306.11893399740245 92.74797606263037 L 306.02187270465635 92.65865208732252 L 305.9267921866074 92.56889381526153 L 305.833701951228 92.47871022219982 L 305.74261130746424 92.38811032642154 L 305.6535293643046 92.29710318784076 L 305.5664650298691 92.20569790709551 L 305.48142701051864 92.11390362463769 L 305.3984238099843 92.02172951981903 L 305.317463728517 91.92918480997322 L 305.23855486205736 91.83627874949414 L 305.1617051014263 91.74302062891039 L 305.08692213153586 91.64941977395632 L 305.01421343062066 91.55548554463944 L 304.9435862694902 91.46122733430438 L 304.8750477108018 91.36665456869365 L 304.8086046083542 91.27177670500497 L 304.7442636064022 91.17660323094567 L 304.6820311389925 91.08114366378383 L 304.6219134293199 90.98540754939663 L 304.5639164891052 90.88940446131572 L 304.50804611799424 90.79314399976991 L 304.4543079029775 90.69663579072514 L 304.40270721783173 90.59988948492189 L 304.3532492225824 90.5029147569101 L 304.30593886298783 90.40572130408178 L 304.2607808700446 90.30831884570122 L 304.21777975951426 90.21071712193307 L 304.17693983147217 90.1129258928684 L 304.13826516987706 90.01495493754861 L 304.1017596421628 89.91681405298758 L 304.06742689885175 89.81851305319199 L 304.0352703731897 89.72006176817992 L 304.00529328080233 89.6214700429978 L 303.977498619374 89.52274773673601 L 303.95188916834763 89.42390472154288 L 303.92846748864696 89.32495088163759 L 303.9072359224205 89.22589611232166 L 303.88819659280716 89.12675031898948 L 303.871351403724 89.02752341613775 L 303.8567020396759 88.92822532637408 L 303.8442499655871 88.82886597942469 L 303.8339964266546 88.72945531114148 L 303.82594244822377 88.63000326250842 L 303.8200888356857 88.53051977864753 L 303.8164361743968 88.43101480782425 L 303.81498482962013 88.3314983004528" stroke-miterlimit="10" stroke-width="2.5633703640000003" stroke-dasharray=""/></g><g><g/><text fill="black" stroke="none" font-family="sans-serif" font-size="11pt" font-style="normal" font-weight="normal" text-decoration="normal" x="291.6151698726562" y="114.44694742800002" text-anchor="start" dominant-baseline="alphabetic" xml:space="preserve">clickhouse</text></g></g><g><g><g><rect fill="white" stroke="none" x="56.75627447195314" y="149.127840588" width="95.76733865648437" height="19.602243960000003"/></g><text fill="black" stroke="none" font-family="sans-serif" font-size="11pt" font-style="normal" font-weight="normal" text-decoration="normal" x="59.01807185195314" y="162.698624868" text-anchor="start" dominant-baseline="alphabetic" xml:space="preserve">getmessages</text></g><g><path fill="none" stroke="black" paint-order="fill stroke markers" d=" M 171.58326460039063 168.730084548 L 50.111377508000004 168.730084548" stroke-miterlimit="10" stroke-width="1.2565541" stroke-dasharray=""/><g transform="translate(37.696623,168.730084548) translate(-37.696623,-168.730084548)"><path fill="black" stroke="none" paint-order="stroke fill markers" d=" M 50.262164000000006 162.447314048 L 37.696623 168.730084548 L 50.262164000000006 175.012855048 Z"/></g></g><g><g><rect fill="white" stroke="none" x="189.42633282039063" y="191.348058348" width="119.38336648851562" height="19.602243960000003"/></g><text fill="black" stroke="none" font-family="sans-serif" font-size="11pt" font-style="normal" font-weight="normal" text-decoration="normal" x="191.68813020039062" y="204.918842628" text-anchor="start" dominant-baseline="alphabetic" xml:space="preserve">processmessage</text></g><g><path fill="none" stroke="black" paint-order="fill stroke markers" d=" M 171.58326460039063 210.950302308 L 231.89786140039064 210.950302308 L 231.89786140039064 230.55254626800001 L 183.99801910839062 230.55254626800001" stroke-miterlimit="10" stroke-width="1.2565541" stroke-dasharray=""/><g transform="translate(171.58326460039063,230.55254626800001) translate(-171.58326460039063,-230.55254626800001)"><path fill="black" stroke="none" paint-order="stroke fill markers" d=" M 184.14880560039063 224.26977576800002 L 171.58326460039063 230.55254626800001 L 184.14880560039063 236.835316768 Z"/></g></g><g><g><rect fill="white" stroke="none" x="199.1947806963672" y="253.17052006800003" width="99.02348794847656" height="19.602243960000003"/></g><text fill="black" stroke="none" font-family="sans-serif" font-size="11pt" font-style="normal" font-weight="normal" text-decoration="normal" x="201.45657807636718" y="266.741304348" text-anchor="start" dominant-baseline="alphabetic" xml:space="preserve">savemessage</text></g><g><path fill="none" stroke="black" paint-order="fill stroke markers" d=" M 171.58326460039063 272.77276402800004 L 313.4150302328203 272.77276402800004" stroke-miterlimit="10" stroke-width="1.2565541" stroke-dasharray=""/><g transform="translate(325.8297847408203,272.77276402800004) translate(-325.8297847408203,-272.77276402800004)"><path fill="black" stroke="none" paint-order="stroke fill markers" d=" M 313.2642437408203 266.489993528 L 325.8297847408203 272.77276402800004 L 313.2642437408203 279.05553452800007 Z"/></g></g><g><g><rect fill="white" stroke="none" x="189.42633282039063" y="295.39073782800006" width="118.56038370042968" height="19.602243960000003"/></g><text fill="black" stroke="none" font-family="sans-serif" font-size="11pt" font-style="normal" font-weight="normal" text-decoration="normal" x="191.68813020039062" y="308.96152210800005" text-anchor="start" dominant-baseline="alphabetic" xml:space="preserve">savesuccessfully</text></g><g><path fill="none" stroke="black" paint-order="fill stroke markers" d=" M 325.8297847408203 314.99298178800007 L 183.99801910839062 314.99298178800007" stroke-miterlimit="10" stroke-width="1.2565541" stroke-dasharray=""/><g transform="translate(171.58326460039063,314.99298178800007) translate(-171.58326460039063,-314.99298178800007)"><path fill="black" stroke="none" paint-order="stroke fill markers" d=" M 184.14880560039063 308.71021128800004 L 171.58326460039063 314.99298178800007 L 184.14880560039063 321.2757522880001 Z"/></g></g><g><g><rect fill="white" stroke="none" x="55.539691220000016" y="337.6109555880001" width="98.20050516039062" height="19.602243960000003"/></g><text fill="black" stroke="none" font-family="sans-serif" font-size="11pt" font-style="normal" font-weight="normal" text-decoration="normal" x="57.80148860000001" y="351.18173986800014" text-anchor="start" dominant-baseline="alphabetic" xml:space="preserve">ackmessages</text></g><g><path fill="none" stroke="black" paint-order="fill stroke markers" d=" M 171.58326460039063 357.2131995480001 L 50.111377508000004 357.2131995480001" stroke-miterlimit="10" stroke-width="1.2565541" stroke-dasharray=""/><g transform="translate(37.696623,357.2131995480001) translate(-37.696623,-357.2131995480001)"><path fill="black" stroke="none" paint-order="stroke fill markers" d=" M 50.262164000000006 350.93042904800006 L 37.696623 357.2131995480001 L 50.262164000000006 363.4959700480001 Z"/></g></g></g><g/><g/><g/></g></svg>